<svg width="97" height="44" viewBox="0 0 97 44" fill="none" xmlns="http://www.w3.org/2000/svg">
<g id="estmk_smartENERGY_ohneZusatz_WEB_rz 7" clip-path="url(#clip0_1337_5294)">
<path id="Vector" d="M92.1602 41.6616C92.1602 42.124 92.2964 42.5761 92.5516 42.9605C92.8069 43.3449 93.1697 43.6445 93.5941 43.8214C94.0185 43.9982 94.4855 44.0444 94.936 43.954C95.3864 43.8636 95.8002 43.6408 96.1248 43.3136C96.4495 42.9865 96.6704 42.5698 96.7598 42.1162C96.8491 41.6627 96.8028 41.1926 96.6267 40.7656C96.4506 40.3385 96.1526 39.9736 95.7705 39.717C95.3883 39.4605 94.9392 39.3238 94.4798 39.3242C93.8657 39.3291 93.2781 39.577 92.8441 40.0143C92.41 40.4517 92.1644 41.0434 92.1602 41.6616Z" fill="#85E846"/>
<path id="Vector_2" d="M6.49939 10.3419C5.03095 9.7714 3.64511 9.23324 3.64511 8.38327C3.64511 7.31849 4.79233 6.9397 5.77435 6.9397C6.99499 6.9397 7.6099 7.40164 8.13074 7.80353C8.52767 8.1061 8.90396 8.3902 9.42939 8.3902C10.4068 8.3902 10.8496 7.69728 10.8496 7.06673C10.8496 5.30904 7.84393 4.18652 5.77435 4.18652C3.25047 4.18652 0.588926 5.72479 0.588926 8.57497C0.588926 10.9748 2.98432 11.9772 5.0952 12.8618C6.67607 13.5224 8.16974 14.146 8.16974 15.1831C8.16974 15.9591 7.27262 16.7629 5.77435 16.7629C4.31968 16.7629 3.45468 16.1554 2.76176 15.6681C2.26386 15.317 1.84398 15.0168 1.31626 15.0168C1.13615 15.0221 0.958905 15.0635 0.79487 15.1385C0.630836 15.2136 0.483306 15.3208 0.360904 15.4539C0.238501 15.587 0.143679 15.7434 0.0819781 15.9138C0.0202772 16.0842 -0.00706356 16.2653 0.0015506 16.4465C0.0015506 18.1741 3.06233 19.5161 5.69405 19.5161C7.04774 19.5494 8.37634 19.1446 9.48446 18.3612C10.0437 17.9462 10.4948 17.4011 10.7992 16.7724C11.1037 16.1437 11.2525 15.4502 11.2328 14.7511C11.2328 12.1804 8.61257 11.1618 6.50857 10.3419" fill="#222222"/>
<path id="Vector_3" d="M28.696 4.18792C26.8811 4.18792 25.5274 4.85543 24.3664 6.33596C23.3913 4.92934 22.0468 4.18792 20.4498 4.18792C18.7152 4.18792 17.7401 4.82771 17.1413 5.43286C17.0893 5.0757 16.9076 4.75065 16.6312 4.52066C16.3548 4.29067 16.0035 4.17211 15.6453 4.18792C14.7275 4.18792 14.1172 4.83926 14.1172 5.80472V17.8938C14.1172 18.8615 14.7321 19.5105 15.6453 19.5105C16.5585 19.5105 17.1734 18.8592 17.1734 17.8938V9.8906C17.1734 8.01512 18.1439 6.9411 19.8349 6.9411C21.5259 6.9411 22.524 8.01512 22.524 9.8906V17.8961C22.524 18.8638 23.1389 19.5129 24.0521 19.5129C24.9653 19.5129 25.5802 18.8615 25.5802 17.8961V9.8906C25.5802 8.01512 26.5507 6.9411 28.2417 6.9411C29.9327 6.9411 30.9308 8.01512 30.9308 9.8906V17.8961C30.9308 18.8638 31.5457 19.5129 32.4589 19.5129C33.3721 19.5129 33.987 18.8615 33.987 17.8961V9.97144C33.987 5.97564 31.33 4.19716 28.696 4.19716" fill="#222222"/>
<path id="Vector_4" d="M59.0384 4.18652C57.9577 4.18652 56.877 4.95797 56.1359 5.88647V5.80563C56.1359 4.83786 55.5233 4.18883 54.6078 4.18883C53.6923 4.18883 53.082 4.84017 53.082 5.80563V17.8947C53.082 18.8624 53.6946 19.5115 54.6078 19.5115C55.521 19.5115 56.1359 18.8601 56.1359 17.8947V11.0972C56.1359 8.19387 58.0977 7.53791 58.9443 7.40164C60.3967 7.12679 60.6996 6.35765 60.6996 5.76406C60.6996 4.84017 60.0112 4.19807 59.0384 4.19807" fill="#222222"/>
<path id="Vector_5" d="M67.8449 4.3515H67.2369V1.6168C67.2369 0.649029 66.622 0 65.7088 0C64.7956 0 64.1807 0.649029 64.1807 1.6168V4.3515H63.575C62.6182 4.3515 62.0469 4.86656 62.0469 5.73732C62.0469 6.60808 62.6182 7.12315 63.575 7.12315H64.1807V17.9164C64.1807 18.8842 64.7956 19.5332 65.7088 19.5332C66.622 19.5332 67.2369 18.8819 67.2369 17.9164V7.10467H67.8449C68.8017 7.10467 69.373 6.5896 69.373 5.71884C69.373 4.84808 68.8017 4.33302 67.8449 4.33302" fill="#222222"/>
<path id="Vector_6" d="M8.49925 26.91C9.41703 26.91 9.99982 26.351 9.99982 25.4525C9.99982 24.5541 9.42391 23.9951 8.49925 23.9951H1.74673C0.755534 23.9951 0.140625 24.6257 0.140625 25.6419V42.191C0.140625 43.205 0.757828 43.8355 1.74673 43.8355H8.49925C9.41703 43.8355 9.99982 43.2766 9.99982 42.3781C9.99982 41.4796 9.42391 40.9207 8.49925 40.9207H3.2014V35.3774H7.99907C8.91684 35.3774 9.49963 34.8184 9.49963 33.9199C9.49963 33.0215 8.92373 32.4625 7.99907 32.4625H3.2014V26.9192L8.49925 26.91Z" fill="#222222"/>
<path id="Vector_7" d="M27.5205 23.8343C26.6028 23.8343 25.9924 24.4857 25.9924 25.4511V38.2608L16.9776 25.2248C16.3076 24.2455 15.89 23.839 15.0296 23.839C14.0866 23.839 13.6094 24.4302 13.6094 25.592V42.3836C13.6094 43.3514 14.2243 44.0004 15.1375 44.0004C16.0507 44.0004 16.6656 43.3491 16.6656 42.3836V29.5763L25.685 42.6077C26.355 43.587 26.7726 43.9935 27.633 43.9935C28.5737 43.9935 29.0532 43.4022 29.0532 42.2404V25.4488C29.0532 24.4811 28.4383 23.832 27.5251 23.832" fill="#222222"/>
<path id="Vector_8" d="M41.4032 40.9241H36.1008V35.3808H40.8961C41.8139 35.3808 42.399 34.8219 42.399 33.9234C42.399 33.0249 41.8231 32.466 40.8961 32.466H36.1008V26.9227H41.4032C42.321 26.9227 42.9061 26.3637 42.9061 25.4652C42.9061 24.5668 42.3302 24.0078 41.4032 24.0078H34.653C33.6595 24.0078 33.0469 24.6384 33.0469 25.6546V42.2037C33.0469 43.2177 33.6618 43.8482 34.653 43.8482H41.4032C42.321 43.8482 42.9061 43.2893 42.9061 42.3908C42.9061 41.4923 42.3302 40.9334 41.4032 40.9334" fill="#222222"/>
<path id="Vector_9" d="M76.2555 32.1628H72.3068C71.389 32.1628 70.8062 32.7218 70.8062 33.6202C70.8062 34.5187 71.3798 35.0777 72.3068 35.0777H75.262V35.8514C75.262 37.9302 73.8739 41.2446 70.1454 41.2446C65.8938 41.2446 64.3864 37.2973 64.3864 33.9159C64.3864 30.2688 66.1347 26.5872 70.0376 26.5872C72.0773 26.5872 73.1626 27.3748 74.0322 28.0076C74.5737 28.398 75.0417 28.7375 75.5901 28.7375C75.7849 28.7419 75.9787 28.7065 76.1595 28.6334C76.3404 28.5603 76.5046 28.4511 76.6423 28.3122C76.78 28.1734 76.8883 28.0079 76.9606 27.8257C77.033 27.6435 77.0678 27.4485 77.0631 27.2524C77.0631 25.9081 74.1148 23.834 70.1982 23.834C63.9619 23.834 61.1719 28.8992 61.1719 33.9159C61.1719 36.5697 61.9474 39.0365 63.3562 40.8612C64.9416 42.9122 67.1879 43.9978 69.8517 43.9978C75.3905 43.9978 78.3182 40.6972 78.3182 34.454C78.3182 32.8372 77.701 32.1628 76.2532 32.1628" fill="#222222"/>
<path id="Vector_10" d="M91.6562 23.834C91.0276 23.834 90.5434 24.1389 90.1809 24.7579L86.0785 31.4907L81.9783 24.7625C81.6112 24.1389 81.1294 23.8386 80.5007 23.8386C79.6907 23.8386 79.0781 24.4091 79.0781 25.1621C79.1034 25.5889 79.2517 25.999 79.5049 26.3423L84.5527 34.6134V42.3833C84.5527 43.351 85.1676 44.0001 86.0807 44.0001C86.9939 44.0001 87.6088 43.3487 87.6088 42.3833V34.6088L92.6566 26.34C92.9106 25.9963 93.059 25.5852 93.0834 25.1574C93.0834 24.4045 92.473 23.834 91.6631 23.834" fill="#222222"/>
<path id="Vector_11" d="M42.9504 16.7608C40.3347 16.7608 39.4055 14.1162 39.4055 11.8503C39.4055 9.58451 40.3232 6.93989 42.9504 6.93989C45.5775 6.93989 46.493 9.58451 46.493 11.8503C46.493 14.1162 45.5637 16.7608 42.9504 16.7608ZM47.966 4.18671C47.7751 4.18358 47.5856 4.21916 47.4086 4.29132C47.2317 4.36349 47.071 4.47076 46.9361 4.60675C46.8013 4.74275 46.6949 4.90468 46.6235 5.08291C46.5521 5.26113 46.5171 5.452 46.5205 5.64414C45.4329 4.64173 44.3064 4.18671 42.9504 4.18671C38.6185 4.18671 36.3516 8.04162 36.3516 11.8503C36.3516 15.659 38.6185 19.514 42.9504 19.514C43.6214 19.5172 44.2857 19.3787 44.9003 19.1073C45.5148 18.836 46.066 18.4379 46.5182 17.9387V18.0034C46.5081 18.2 46.5383 18.3965 46.6068 18.5808C46.6753 18.7652 46.7807 18.9334 46.9164 19.075C47.0522 19.2167 47.2154 19.3287 47.3959 19.4042C47.5765 19.4797 47.7705 19.5171 47.966 19.514C48.1608 19.5147 48.3538 19.4758 48.5333 19.3995C48.7128 19.3232 48.875 19.2111 49.0103 19.0699C49.1456 18.9288 49.2511 18.7615 49.3204 18.5782C49.3898 18.3949 49.4215 18.1994 49.4138 18.0034V5.69727C49.4215 5.50129 49.3898 5.30576 49.3204 5.12247C49.2511 4.93917 49.1456 4.77191 49.0103 4.63077C48.875 4.48962 48.7128 4.37751 48.5333 4.30119C48.3538 4.22488 48.1608 4.18593 47.966 4.18671Z" fill="#222222"/>
<path id="Vector_12" d="M49.5764 32.8338V26.7477H52.3733C54.241 26.7477 55.597 27.9765 55.597 29.6695C55.597 31.9469 54.7068 32.8338 52.4261 32.8338H49.5764ZM58.426 41.4121L52.8873 35.2983H53.1328C56.6914 35.162 58.6509 33.1087 58.6509 29.524C58.6509 26.0733 55.5144 24.0107 52.4812 24.0107H48.1217C47.1282 24.0107 46.5156 24.6413 46.5156 25.6553V42.3937C46.5156 43.3615 47.1282 44.0105 48.0437 44.0105C48.9592 44.0105 49.5695 43.3592 49.5695 42.3937V36.0143L56.2234 43.343C56.3845 43.5425 56.5867 43.7042 56.8161 43.8171C57.0455 43.93 57.2966 43.9913 57.5519 43.9967C58.3366 43.9967 58.9744 43.4262 58.9744 42.7263C58.9777 42.4813 58.931 42.2382 58.837 42.0121C58.7431 41.786 58.604 41.5818 58.4283 41.4121" fill="#222222"/>
</g>
<defs>
<clipPath id="clip0_1337_5294">
<rect width="96.8" height="44" fill="white"/>
</clipPath>
</defs>
</svg>
